<svg height="100" viewBox="0 0 100 100" width="100" xmlns="http://www.w3.org/2000/svg"><path d="m82.42 37.44v-7.64l-8.04-8.8-13.16 29 13.16 28.99 8.04-8.81v-7.64l-2.68 1.82v-3.67l2.68-1.39v-7.69l-2.68.07v-3.44l2.68.13v-7.49l-2.68-1.4v-2.58z" fill="#2e73b8"/><path d="m60.05 86.17 14.33-7.18v-58l-14.33-7.16-16.25 36.78z" fill="#5294cf"/><path d="m39.95 86.17h20.1v-72.34h-20.1l-10.38 36.78z" fill="#2e73b8"/><path d="m39.95 86.17-14.46-7.18-4.55-28.38 4.55-29.62 14.42-7.16z" fill="#205b99"/><path d="m79.74 60.69-5.37 2.62-14.32 3.09h-9.78-10.32l-14.06-3.09-.25-.05-.16-.04v-10.92l14.45 1.04h10.34 9.78l14.33-1.04 8.05-.67-2.69-.02v-3.22l2.65-.03-8.01-.59-14.33-.46h-9.78-10.21l-14.58.35v-11l.16-.03 14.42-3.39h10.21 9.78l14.33 3.39 5.36 2.86v-1.81l2.68-.22-8.04-5.62-14.33-4.63h-9.78-10.21l-14.58 4.79v-11.01l-7.03 8.81v7.65l2.01.23v1.84l-2.01 1.2v7.65l2.01.02v3.22l-2.01.03v7.61l2.01 1.2v1.87l-2.03.23.02 7.62 7.03 8.81v-11.01l14.46 4.46h10.33 9.78l14.33-4.44 8.04-5.45-2.68-.22z" fill="#19486f"/></svg>